<svg width="122" height="124" viewBox="0 0 122 124" fill="none" xmlns="http://www.w3.org/2000/svg">
<path d="M5.13567 79.077C1.60438 72.5029 -0.161153 65.1252 0.0115575 57.6647C0.184268 50.2043 2.28932 42.9162 6.12103 36.5125C9.95275 30.1089 15.3801 24.8087 21.8728 21.1299C28.3654 17.4511 35.7014 15.5194 43.1639 15.5236C44.4313 15.5236 45.6988 15.5789 46.9327 15.6855C53.2087 16.2174 59.289 18.1329 64.7366 21.2944C72.5616 25.8192 78.7746 32.6791 82.5049 40.9126C83.283 42.6319 83.9464 44.4007 84.491 46.2076C83.4706 44.9408 82.3832 43.7295 81.2335 42.5789C79.1239 40.4662 76.8092 38.5688 74.3236 36.9147C68.1078 32.7881 60.9543 30.2904 53.5208 29.6514C52.2237 29.5369 50.9069 29.4797 49.6059 29.4797C45.6992 29.4796 41.8092 29.99 38.0347 30.9979C31.7226 32.672 25.8599 35.7244 20.8685 39.9353C19.8814 40.7704 18.9061 41.6608 17.9861 42.5789C13.2464 47.3103 9.63196 53.0476 7.41057 59.3656C5.18917 65.6836 4.41774 72.4204 5.15343 79.077H5.13567Z" fill="#004E64"/>
<path d="M87.6281 63.5435C88.1253 58.9499 87.9156 54.3071 87.0062 49.777C85.0889 40.3191 80.1633 31.7352 72.9652 25.3075C65.7671 18.8798 56.6827 14.9531 47.0689 14.114C45.7916 14.0015 44.4767 13.9442 43.1639 13.9442C36.4679 13.9383 29.8563 15.4383 23.8184 18.3332C17.7805 21.2281 12.4709 25.4437 8.28264 30.6682C10.5413 23.2081 14.7766 16.4981 20.5394 11.2498C26.3021 6.00142 33.3777 2.4102 41.0159 0.856835C48.9849 -0.751171 57.2454 -0.0869084 64.855 2.77384C70.5873 4.93476 75.7888 8.30103 80.1082 12.6451C81.0005 13.5355 81.8574 14.4713 82.6589 15.4249C86.7182 20.2378 89.663 25.8888 91.2825 31.9731C94.1333 42.5836 92.8262 53.882 87.6281 63.5613V63.5435Z" fill="#CCDCE0"/>
<path d="M37.1305 115.522C29.9854 113.37 23.5206 109.402 18.3679 104.004C13.2152 98.6068 9.5508 91.9649 7.73278 84.7277C5.91476 77.4904 6.00531 69.9053 7.99556 62.7135C9.98581 55.5217 13.8077 48.9692 19.0878 43.6963C19.9742 42.8079 20.91 41.9491 21.8695 41.1436C26.6833 37.0817 32.3377 34.1372 38.4256 32.522C42.0676 31.5504 45.8208 31.0586 49.5901 31.0591C50.8457 31.0591 52.1171 31.1143 53.3668 31.2249C57.2975 31.5646 61.163 32.4421 64.855 33.8329C66.5963 34.4911 68.2897 35.2695 69.923 36.1625C62.0098 35.312 54.013 36.585 46.755 39.8504L46.7215 39.8662C38.1896 43.7338 31.0799 50.1712 26.3866 58.2782C23.1076 63.9259 21.1213 70.2302 20.5704 76.7375C20.4599 78.0149 20.4026 79.3277 20.4026 80.6406C20.3972 87.3369 21.8978 93.9487 24.7934 99.9866C27.689 106.025 31.9054 111.334 37.1305 115.522Z" fill="#CCDCE0"/>
<path d="M65.1314 123.79C59.4638 123.794 53.851 122.681 48.614 120.514C43.3769 118.348 38.6186 115.169 34.6111 111.162C30.6035 107.154 27.4255 102.395 25.2588 97.1583C23.0922 91.9212 21.9793 86.3082 21.984 80.6406C21.984 79.3751 22.0393 78.1076 22.1459 76.8737C22.6775 70.597 24.593 64.5161 27.7548 59.0679C32.276 51.2563 39.1235 45.0514 47.3414 41.3193L47.375 41.3035C49.086 40.5355 50.8503 39.8922 52.6541 39.3786C51.3867 40.3726 50.1796 41.4413 49.0393 42.5789C46.9272 44.6885 45.0305 47.0033 43.3771 49.4888C38.0458 57.5326 35.4591 67.085 36.0031 76.7199C36.5472 86.3547 40.1928 95.5552 46.3957 102.948C47.2308 103.935 48.1212 104.91 49.0393 105.83C53.7748 110.565 59.5132 114.177 65.8309 116.398C72.1487 118.619 78.8845 119.393 85.5413 118.663C79.2681 122.037 72.2545 123.799 65.1314 123.79Z" fill="#004E64"/>
<path d="M80.6768 117.407C75.0103 117.414 69.3983 116.301 64.1632 114.133C58.928 111.965 54.1727 108.783 50.1705 104.772C49.2841 103.884 48.4253 102.948 47.6198 101.99C43.5585 97.176 40.6141 91.5218 38.9982 85.4341C36.1544 74.8232 37.4612 63.5274 42.6525 53.846C42.1553 58.4416 42.3651 63.0863 43.2744 67.6184C45.1898 77.0776 50.1147 85.6631 57.3132 92.0918C64.5116 98.5205 73.597 102.447 83.2117 103.285C84.493 103.398 85.8059 103.453 87.1168 103.453C93.8137 103.46 100.426 101.961 106.465 99.065C112.503 96.1693 117.813 91.9519 122 86.7253C119.324 95.6011 113.859 103.379 106.416 108.905C98.9729 114.431 89.9473 117.413 80.6768 117.407Z" fill="#004E64"/>
<path d="M94.4393 79.4126C94.4384 81.264 93.9169 83.0779 92.9342 84.647C91.9516 86.2161 90.5474 87.4773 88.8822 88.2864C87.217 89.0956 85.3577 89.4201 83.5169 89.2229C81.676 89.0258 79.9276 88.3149 78.4715 87.1715C78.9234 87.746 79.4372 88.2691 80.0035 88.7311C78.026 87.0748 76.7753 84.7103 76.5193 82.1435C76.2632 79.5767 77.022 77.0116 78.6333 74.9973C80.2446 72.9829 82.5804 71.6794 85.1408 71.3655C87.7012 71.0517 90.2827 71.7525 92.3328 73.3181C93.7 75.0551 94.4421 77.2021 94.4393 79.4126Z" fill="#CCDCE0"/>
<path d="M96.1036 81.075C96.1036 83.693 95.0636 86.2038 93.2124 88.055C91.3612 89.9062 88.8504 90.9463 86.2323 90.9463H85.7506C85.6585 90.9463 85.5657 90.9403 85.4722 90.9285L85.2235 90.9068C85.1524 90.9068 85.0813 90.893 85.0122 90.8831C84.5916 90.8315 84.1748 90.7524 83.7645 90.6462L83.5552 90.5909C83.2341 90.5006 82.9178 90.3939 82.6076 90.2711L82.3509 90.1645C82.2601 90.1269 82.1713 90.0855 82.0805 90.044L81.8475 89.9315C81.6896 89.8545 81.5356 89.7736 81.3836 89.6847L81.3184 89.6492C81.1723 89.5643 81.0302 89.4774 80.89 89.3866C80.7498 89.2958 80.5859 89.1892 80.4379 89.0766C80.3629 89.0233 80.2898 88.968 80.2187 88.9128C80.1477 88.8575 80.0746 88.8002 80.0035 88.743C79.4372 88.2809 78.9234 87.7579 78.4715 87.1833C80.3703 88.6691 82.7471 89.4086 85.1536 89.2623C87.5602 89.116 89.8299 88.094 91.5347 86.3892C93.2395 84.6844 94.2615 82.4146 94.4078 80.0081C94.5541 77.6016 93.8146 75.2247 92.3288 73.326L92.5421 73.4977C92.6822 73.6162 92.8185 73.7366 92.9527 73.861L93.1501 74.0486C93.4774 74.3669 93.7804 74.7094 94.0563 75.0732C94.2261 75.2904 94.3841 75.5154 94.5321 75.7464C94.7324 76.0546 94.9144 76.3743 95.077 76.7039L95.1895 76.9369C95.231 77.0258 95.2705 77.1166 95.31 77.2074L95.4166 77.464C95.4581 77.5726 95.4995 77.6812 95.539 77.7918C95.5627 77.8569 95.5844 77.9221 95.6061 77.9892C95.6535 78.1274 95.695 78.2695 95.7364 78.4117C95.7562 78.4808 95.7739 78.5499 95.7917 78.621C95.8806 78.963 95.9504 79.3097 96.001 79.6594L96.0306 79.8746C96.0306 79.9417 96.0464 80.0108 96.0523 80.072C96.0582 80.1332 96.0681 80.2379 96.074 80.3208C96.0799 80.4037 96.0878 80.5064 96.0918 80.5992C96.0957 80.6919 96.0918 80.7512 96.0918 80.8262C96.0918 80.9012 96.1036 80.9901 96.1036 81.075Z" fill="#CCDCE0"/>
<path d="M96.1036 81.075C96.1036 83.693 95.0636 86.2038 93.2124 88.055C91.3612 89.9062 88.8504 90.9463 86.2323 90.9463H85.7506C85.6585 90.9463 85.5657 90.9403 85.4722 90.9285L85.2235 90.9068C85.1524 90.9068 85.0813 90.893 85.0122 90.8831C84.5916 90.8315 84.1748 90.7524 83.7645 90.6462L83.5552 90.5909C83.2341 90.5006 82.9178 90.3939 82.6076 90.2711L82.3509 90.1645C82.2601 90.1269 82.1713 90.0855 82.0805 90.044L81.8475 89.9315C81.6896 89.8545 81.5356 89.7716 81.3836 89.6847L81.3184 89.6492C81.1723 89.5643 81.0302 89.4774 80.89 89.3866C80.7498 89.2958 80.5859 89.1892 80.4379 89.0766C80.3629 89.0233 80.2898 88.968 80.2187 88.9128C80.1477 88.8575 80.0746 88.8002 80.0035 88.743C79.4372 88.2809 78.9234 87.7579 78.4715 87.1833C80.3703 88.6691 82.7471 89.4086 85.1536 89.2623C87.5602 89.116 89.8299 88.094 91.5347 86.3892C93.2395 84.6844 94.2615 82.4146 94.4078 80.0081C94.5541 77.6016 93.8146 75.2247 92.3288 73.326L92.5421 73.4977C92.6822 73.6162 92.8185 73.7366 92.9527 73.861L93.1501 74.0486C93.4749 74.3694 93.7776 74.7117 94.0563 75.0732C94.2241 75.2904 94.3821 75.5154 94.5321 75.7464C94.731 76.0555 94.9129 76.3751 95.077 76.7039L95.1895 76.9369C95.231 77.0258 95.2705 77.1166 95.31 77.2074L95.4166 77.464C95.4581 77.5726 95.4995 77.6812 95.539 77.7918C95.5627 77.8569 95.5844 77.9221 95.6061 77.9892C95.6535 78.1274 95.695 78.2695 95.7364 78.4117C95.7562 78.4808 95.7739 78.5499 95.7917 78.621C95.8806 78.963 95.9504 79.3097 96.001 79.6594L96.0306 79.8746C96.0306 79.9417 96.0464 80.0108 96.0523 80.072C96.0582 80.1332 96.0681 80.2379 96.074 80.3208C96.0799 80.4037 96.0878 80.5064 96.0918 80.5992C96.0957 80.6919 96.0918 80.7492 96.0918 80.8262C96.0918 80.9032 96.1036 80.9901 96.1036 81.075Z" fill="#004E64"/>
</svg>
